<?xml version="1.0" encoding="utf-8"?>
<!-- Generator: Adobe Illustrator 19.2.0, SVG Export Plug-In . SVG Version: 6.00 Build 0)  -->
<svg version="1.1" id="Layer_1" xmlns="http://www.w3.org/2000/svg" xmlns:xlink="http://www.w3.org/1999/xlink" x="0px" y="0px"
	 viewBox="0 0 512 300" style="enable-background:new 0 0 512 300;" xml:space="preserve">
<g>
	<g>
		<g>
			<path d="M122.6,71.5c-23.4,4.9-46.7,10.3-69.9,16.3c-11.4,2.9-22.8,6-34.2,9.2c-3.4,1-9.9,1.4-12.1,4.6c-1.4,2.1-0.6,4.7,1.5,5.7
				c2.9,1.4,5.4-2.9,2.5-4.3c0.5,1.4,1.4,1.6,2.8,0.6c1.3-0.4,2.5-0.7,3.8-1.1c2.5-0.7,5-1.4,7.6-2.1c4.4-1.2,8.8-2.4,13.3-3.6
				c9.5-2.5,19-5,28.6-7.4c19.1-4.7,38.3-9.1,57.5-13.2C127.1,75.6,125.7,70.8,122.6,71.5L122.6,71.5z"/>
		</g>
	</g>
	<g>
		<g>
			<path d="M7,108.5c8,2.7,12.9,9.8,21.7,11.2c10.3,1.7,20.3,3.7,30.4,6.3c2.3,0.6,3.7-1.8,2.8-3.7c-1.2-2.7-2.4-5.3-3.5-8
				c-1.3-2.9-5.6-0.4-4.3,2.5c1.2,2.7,2.3,5.3,3.5,8c0.9-1.2,1.9-2.4,2.8-3.7c-10.1-2.6-20.1-4.6-30.4-6.3
				c-8.6-1.4-13.7-8.5-21.7-11.2C5.2,102.7,3.9,107.5,7,108.5L7,108.5z"/>
		</g>
	</g>
	<g>
		<g>
			<path d="M58.2,127.3c4,7.8,12.1,11.3,19.7,14.7c9.7,4.4,19.5,8.2,30.2,9.1c11.6,1,23.5,0.3,35.1,0.3c12.3-0.1,24.6-0.1,36.8-0.2
				c3.2,0,3.2-5,0-5c-21.5,0.1-42.9,0.6-64.4,0.3c-11-0.2-20.9-2.5-31-6.9c-7.8-3.4-18-6.8-22.1-14.8
				C61,121.9,56.7,124.5,58.2,127.3L58.2,127.3z"/>
		</g>
	</g>
	<g>
		<g>
			<path d="M179.7,151.9c35.2,0.2,66.2,23.4,95.2,40.7c32.2,19.1,64.3,38.3,96.5,57.4c2.8,1.6,5.3-2.7,2.5-4.3
				c-33.3-19.8-66.6-39.6-99.9-59.4c-28.9-17.2-59.4-39.1-94.4-39.3C176.4,146.8,176.4,151.8,179.7,151.9L179.7,151.9z"/>
		</g>
	</g>
	<g>
		<g>
			<path d="M368.8,248.9c11.3,13,29.2,14.9,45.4,12.6c20.5-2.9,40.9-9,60.8-14.6c3.1-0.9,1.8-5.7-1.3-4.8
				c-17.5,5-35.2,9.8-53.1,13.3c-16.6,3.3-36.1,3.9-48.2-10C370.2,243,366.7,246.5,368.8,248.9L368.8,248.9z"/>
		</g>
	</g>
	<g>
		<g>
			<path d="M472.7,239.4c-16.7,8.5-34.2-1.7-48.2-10.7c-15-9.7-30-19.4-45-29.1c-30.7-19.9-61.4-39.7-92.1-59.6
				c-2.7-1.8-5.2,2.6-2.5,4.3c32.9,21.3,65.9,42.6,98.8,63.9c15.7,10.1,31.1,21.1,47.3,30.4c13.5,7.7,29.5,12.6,44.2,5.1
				C478.1,242.3,475.5,237.9,472.7,239.4L472.7,239.4z"/>
		</g>
	</g>
	<g>
		<g>
			<path d="M346,120.8c32.4-6.4,65.6-8.5,98.6-6.5c3.2,0.2,3.2-4.8,0-5c-33.4-2-67,0.2-99.9,6.7C341.5,116.6,342.9,121.4,346,120.8
				L346,120.8z"/>
		</g>
	</g>
	<g>
		<g>
			<path d="M289.1,141.9c1.1-7.7,13-9.4,19.1-11.1c11.6-3.3,23.1-6.8,34.9-9.4c3.1-0.7,1.8-5.5-1.3-4.8
				c-13.1,2.9-25.9,6.8-38.8,10.5c-7,2-17.5,5-18.7,13.5C283.8,143.8,288.6,145.1,289.1,141.9L289.1,141.9z"/>
		</g>
	</g>
	<g>
		<g>
			<path d="M444.7,115.1c11.1,0.6,21.5,3.1,32.2,5.8c9.1,2.3,18.5,3.9,27.6,0.6c3-1.1,1.7-5.9-1.3-4.8c-10,3.6-20.2,0.7-30.1-1.9
				c-9.3-2.5-18.8-4.1-28.4-4.6C441.5,109.9,441.5,114.9,444.7,115.1L444.7,115.1z"/>
		</g>
	</g>
	<g>
		<g>
			<path d="M507.6,115.2c-13.4-7.6-27.3-14.3-41.6-20.1c-3-1.2-4.3,3.6-1.3,4.8c13.9,5.7,27.4,12.2,40.4,19.6
				C507.9,121.2,510.4,116.8,507.6,115.2L507.6,115.2z"/>
		</g>
	</g>
	<g>
		<g>
			<path d="M468.2,95.9c-6.1-28.3-11.1-56.9-14.8-85.7c-0.4-3.1-5.4-3.2-5,0c3.8,29.2,8.7,58.2,15,87
				C464.1,100.3,468.9,99,468.2,95.9L468.2,95.9z"/>
		</g>
	</g>
	<g>
		<g>
			<path d="M450.7,8.4c-7.4,0-14.9,0-22.3,0c-3.2,0-3.2,5,0,5c7.4,0,14.9,0,22.3,0C453.9,13.4,453.9,8.4,450.7,8.4L450.7,8.4z"/>
		</g>
	</g>
	<g>
		<g>
			<path d="M424.1,12.7c-1.2,10.5-2.8,21-4.8,31.5c-1,5-2,10-3.2,15c-1,4.3-1.3,10.4-6.2,12c-3.9,1.3-8.5,1.5-12.5,2.2
				c-5.2,0.9-10.7,1.9-15.9,1c-7.9-1.4-14.3-6.8-22.5-7.8c-3.2-0.4-3.2,4.6,0,5c5.3,0.6,9.9,3.5,14.8,5.6c4.2,1.8,8.5,2.6,13,2.5
				c5.2-0.1,10.3-1.2,15.4-2.1c4.1-0.7,9.5-0.8,12.9-3.4c2.9-2.2,3.9-5.8,4.7-9.2c1.5-5.9,2.8-11.8,3.9-17.7c2.3-11.5,4-23,5.3-34.7
				C429.5,9.5,424.5,9.6,424.1,12.7L424.1,12.7z"/>
		</g>
	</g>
	<g>
		<g>
			<path d="M353.3,71.9c3.1,1,5.3,3,6.4,6c0.8-1.1,1.6-2.1,2.4-3.2c-56.4-7.5-110-46.6-168.6-30.2c-3.1,0.9-1.8,5.7,1.3,4.8
				c57.5-16.1,111.6,23,167.2,30.4c1.6,0.2,2.9-1.8,2.4-3.2c-1.7-4.8-5-8-9.9-9.5C351.5,66.1,350.2,70.9,353.3,71.9L353.3,71.9z"/>
		</g>
	</g>
	<g>
		<g>
			<path d="M193,43.4c-13.9,2.5-24,14.6-38,16.4c-3.1,0.4-3.2,5.4,0,5c14.7-1.9,25-14,39.3-16.6C197.5,47.7,196.1,42.9,193,43.4
				L193,43.4z"/>
		</g>
	</g>
	<g>
		<g>
			<path d="M157.2,60.2c-3.9-3-7.8-5.9-11.7-8.9c-3.3-2.5-9-5.6-8.5-10.4c0.3-3.2-4.7-3.2-5,0c-0.5,5,2.9,8.5,6.6,11.3
				c5.3,4.2,10.7,8.1,16,12.2C157.2,66.4,159.7,62.1,157.2,60.2L157.2,60.2z"/>
		</g>
	</g>
	<g>
		<g>
			<path d="M132.8,36.6c-8.9,0.1-17.1,3.1-24.1,8.6c-2.5,2,1,5.5,3.5,3.5c5.9-4.7,13-7,20.5-7.1C136,41.5,136,36.5,132.8,36.6
				L132.8,36.6z"/>
		</g>
	</g>
	<g>
		<g>
			<path d="M105.5,50.9c4.9,9,11.9,16.4,20.6,22c0-1.4,0-2.9,0-4.3c-0.9,0.2-1.9,0.5-2.8,0.7c-3.1-0.7-4.5,4.1-1.3,4.8
				c2.6,0.5,4.5,0.3,6.7-1.2c1.6-1.1,1.6-3.3,0-4.3c-7.9-5.1-14.2-11.9-18.8-20.2C108.2,45.6,103.9,48.1,105.5,50.9L105.5,50.9z"/>
		</g>
	</g>
	<g>
		<g>
			<path d="M184.9,151.3c2.6-6.9,10.3-8.4,16.8-9.1c10.7-1.2,21.4-1.9,32.1-2.4c10.4-0.5,20.8-0.7,31.2-0.6
				c7.6,0.1,16.5-0.1,21.6,6.5c-0.8-1,0.8-3.9,0-5c-4.9-6.3-13.3-6.4-20.6-6.5c-10.7-0.1-21.5,0.1-32.2,0.6
				c-10.4,0.5-20.8,1.2-31.1,2.3c-6.8,0.7-15.1,2-17.8,9.2C184.3,147.8,185.4,149.9,184.9,151.3L184.9,151.3z"/>
		</g>
	</g>
	<g>
		<g>
			<path d="M396.8,92c-11-2.7-22.3-0.6-31.7,5.7c-0.8,0.5,0.7,4.5,0,5c9.4-6.4,20.7-8.4,31.7-5.7C396.5,96.9,397.3,92.1,396.8,92
				L396.8,92z"/>
		</g>
	</g>
	<g>
		<g>
			<path d="M369.4,92.5c-7.1,7-13.6,14.5-19.5,22.5c-0.8,1.1,0.8,3.9,0,5c5.9-8,12.5-15.5,19.5-22.5
				C370.2,96.6,368.5,93.3,369.4,92.5L369.4,92.5z"/>
		</g>
	</g>
	<g>
		<g>
			<path d="M127.3,75.8c9.2-4.6,18.7-8.5,28.5-11.9c3-1.1,1.7-5.9-1.3-4.8c-10.1,3.5-20,7.7-29.6,12.4
				C121.9,72.9,124.4,77.3,127.3,75.8L127.3,75.8z"/>
		</g>
	</g>
	<g>
		<g>
			<path d="M195.8,49.9c2.8,1.9,6,2.7,9,4.3c5.5,2.9,3,9,1.2,13.7c-3.4,8.9-8.7,21.7-19.6,22.1c-9.8,0.4-19.9-4.4-29-7.6
				c-10-3.5-20-7-30-10.5c-3-1.1-4.4,3.8-1.3,4.8c13.3,4.7,26.6,9.5,40,14c9.3,3.2,22,7.5,31,1c4.1-3,6.5-7.8,8.9-12.1
				c2.9-5.4,5.7-11.2,7-17.3c2.4-11.4-7.4-11.8-14.6-16.8C195.7,43.7,193.2,48,195.8,49.9L195.8,49.9z"/>
		</g>
	</g>
	<g>
		<g>
			<path d="M215.8,64.5c-1.7,4.7-3.5,9.5-5.2,14.2c-1.7,4.5-4.3,9.5-5.2,14.2c-0.4,2.2-0.2,4,2,5c1.2,0.6,2.3,0.3,3.5,0.3
				c2.6-0.1,4.8,0.2,7.2,1c4,1.3,7.7,3.1,12,3.4c4.7,0.3,9.3-1,13.8-2c4.9-1.1,9.8-2.3,14.7-3.4c3.4-0.8,7.3-1.2,9.7-4.1
				c4.9-5.8,6.3-15.9,6.7-23.2c0.2-3,0.8-7.3-1.3-9.9c-1.8-2.3-4.9-2.4-7.6-2.8c-16.9-2.2-34.7-3.6-50.1,5.1
				c-2.8,1.6-0.3,5.9,2.5,4.3c12-6.8,25.8-6.8,39.2-5.4c2.9,0.3,6.7,0.2,9.5,1.1c4.1,1.4,3,5.7,2.7,9.3c-0.7,6.8-2.1,18.1-9.8,20
				c-6.7,1.6-13.5,3.2-20.2,4.7c-4.2,0.9-8.3,1.7-12.5,0.7c-3.2-0.8-6.2-2.4-9.4-3.3c-2.6-0.7-4.8-0.7-7.5-0.6
				c-0.7-0.1-0.8,0.2-0.2,1c0.3-0.9,0.6-1.8,1-2.7c0.5-1.5,1.1-3,1.6-4.4c2.6-7.1,5.2-14.2,7.8-21.3
				C221.8,62.8,216.9,61.5,215.8,64.5L215.8,64.5z"/>
		</g>
	</g>
	<g>
		<g>
			<path d="M277.7,64.9c0.4,8.4-0.5,16.6-2.7,24.8c-0.7,2.7,3.2,4.5,4.6,1.9c2.4-4.6,8.4-3.2,12.6-4.4c2.6-0.8,5-2.2,7-3.9
				c4.3-3.8,6.6-9.2,6.6-15c0-0.8-0.5-1.8-1.2-2.2c-8-3.7-16.3-5.6-25.1-5.6c-3.2,0-3.2,5,0,5c7.9,0.1,15.4,1.7,22.6,4.9
				c-0.4-0.7-0.8-1.4-1.2-2.2c0.1,6.8-4.4,12.9-11.2,14.4c-5.6,1.3-11.2,0.6-14.3,6.4c1.5,0.6,3,1.3,4.6,1.9
				c2.3-8.6,3.3-17.2,2.9-26.1C282.5,61.7,277.5,61.7,277.7,64.9L277.7,64.9z"/>
		</g>
	</g>
	<g>
		<g>
			<path d="M52.4,94.6c3.8,7.1,5.1,14.9,3.7,22.8c-0.5,3.1,4.3,4.5,4.8,1.3c1.6-9.3,0.2-18.3-4.2-26.7
				C55.2,89.2,50.9,91.8,52.4,94.6L52.4,94.6z"/>
		</g>
	</g>
	<g>
		<g>
			<path d="M467.6,113.4c-21.7-14.7-47.2-22.5-73.4-22.7c0,0,0,5,0,5c26.2,0.1,51.7,8,73.4,22.7
				C466.8,117.9,468.4,113.9,467.6,113.4L467.6,113.4z"/>
		</g>
	</g>
</g>
</svg>
